test
version=1
nRows=38
nColumns=25
inDegrees=yes
endheader
time	pelvis_tilt	pelvis_list	pelvis_rotation	pelvis_tx	pelvis_ty	pelvis_tz	hip_flexion_r	hip_adduction_r	hip_rotation_r	knee_flexion_r	knee_adduction_r	knee_rotation_r	ankle_angle_r	subtalar_angle_r	mtp_angle_r	hip_flexion_l	hip_adduction_l	hip_rotation_l	knee_flexion_l	knee_adduction_l	knee_rotation_l	ankle_angle_l	subtalar_angle_l	mtp_angle_l
2.633333	0.000000	0.000000	0.000000	0.000000	0.000000	0.000000	34.341095	-6.483284	7.272047	68.489105	7.550894	14.368751	-2.080255	6.435054	0.000000	21.622776	6.275316	-4.947696	8.008301	-1.309430	8.221867	-0.639015	14.152576	0.000000
2.641667	0.000000	0.000000	0.000000	0.000000	0.000000	0.000000	35.453888	-6.091501	7.769519	67.808479	8.110762	13.948315	-0.913868	6.626676	0.000000	20.757942	6.188933	-5.150053	7.616701	-1.379590	8.402017	-0.234283	14.359837	0.000000
2.650000	0.000000	0.000000	0.000000	0.000000	0.000000	0.000000	36.474434	-5.683417	8.190854	66.894279	8.612341	13.448117	0.185463	6.796734	0.000000	19.872082	6.088403	-5.290905	7.253420	-1.448577	8.643504	0.195956	14.474405	0.000000
2.658333	0.000000	0.000000	0.000000	0.000000	0.000000	0.000000	37.407845	-5.263916	8.539415	65.753479	9.051716	12.870688	1.223734	6.910450	0.000000	18.973879	5.973019	-5.363931	6.916121	-1.513913	8.916030	0.642100	14.521703	0.000000
2.666667	0.000000	0.000000	0.000000	0.000000	0.000000	0.000000	38.260628	-4.839031	8.823763	64.388649	9.428279	12.212903	2.196935	6.947522	0.000000	18.070412	5.843377	-5.363052	6.593386	-1.573626	9.175726	1.089527	14.539239	0.000000
2.675000	0.000000	0.000000	0.000000	0.000000	0.000000	0.000000	39.038792	-4.415056	9.055642	62.800095	9.742857	11.466008	3.092238	6.902623	0.000000	17.166256	5.701430	-5.283336	6.269428	-1.626941	9.375521	1.522804	14.566221	0.000000
2.683333	0.000000	0.000000	0.000000	0.000000	0.000000	0.000000	39.748741	-3.998009	9.248210	60.988369	9.996371	10.617375	3.890879	6.783524	0.000000	16.265400	5.550263	-5.121303	5.928836	-1.674184	9.475462	1.928671	14.632892	0.000000
2.691667	0.000000	0.000000	0.000000	0.000000	0.000000	0.000000	40.396950	-3.593590	9.414454	58.956436	10.188809	9.654263	4.572691	6.607210	0.000000	15.371969	5.393809	-4.875474	5.560631	-1.716395	9.450745	2.298093	14.753466	0.000000
2.700000	0.000000	0.000000	0.000000	0.000000	0.000000	0.000000	40.990158	-3.207007	9.565265	56.711315	10.317839	8.568735	5.120641	6.395585	0.000000	14.491822	5.236206	-4.547813	5.161799	-1.754986	9.295713	2.627863	14.924867	0.000000
2.708333	0.000000	0.000000	0.000000	0.000000	0.000000	0.000000	41.534492	-2.842526	9.707044	54.265118	10.377076	7.362643	5.523919	6.172296	0.000000	13.632556	5.080782	-4.145222	4.739049	-1.791081	9.023731	2.921481	15.129572	0.000000
2.716667	0.000000	0.000000	0.000000	0.000000	0.000000	0.000000	42.035305	-2.502868	9.839985	51.635738	10.354907	6.051928	5.779391	5.960617	0.000000	12.803401	4.929298	-3.680361	4.308057	-1.824847	8.663462	3.188510	15.340783	0.000000
2.725000	0.000000	0.000000	0.000000	0.000000	0.000000	0.000000	42.496517	-2.188987	9.958045	48.846779	10.234761	4.668355	5.892073	5.782040	0.000000	12.013973	4.782089	-3.171685	3.890661	-1.855220	8.253133	3.442598	15.528855	0.000000
2.733333	0.000000	0.000000	0.000000	0.000000	0.000000	0.000000	42.920612	-1.900182	10.050680	45.927383	9.997111	3.258373	5.874215	5.655003	0.000000	11.273210	4.639184	-2.642695	3.511068	-1.880683	7.834265	3.698843	15.667116	0.000000
2.741667	0.000000	0.000000	0.000000	0.000000	0.000000	0.000000	43.307899	-1.634218	10.105294	42.911175	9.622705	1.878918	5.742445	5.593092	0.000000	10.587489	4.501050	-2.119935	3.191871	-1.900037	7.446162	3.971505	15.736650	0.000000
2.750000	0.000000	0.000000	0.000000	0.000000	0.000000	0.000000	43.657173	-1.387836	10.110344	39.834549	9.096565	0.591106	5.513978	5.603032	0.000000	9.959813	4.369396	-1.630184	2.950501	-1.913222	7.121611	4.271844	15.728806	0.000000
2.758333	0.000000	0.000000	0.000000	0.000000	0.000000	0.000000	43.966606	-1.157767	10.058046	36.733994	8.411623	-0.547338	5.203732	5.682122	0.000000	9.389664	4.247405	-1.197304	2.797057	-1.921372	6.884088	4.606386	15.646655	0.000000
2.766667	0.000000	0.000000	0.000000	0.000000	0.000000	0.000000	44.234703	-0.941537	9.945975	33.643623	7.571014	-1.488596	4.822989	5.816246	0.000000	8.873608	4.139269	-0.840241	2.734148	-1.926612	6.745713	4.976103	15.506261	0.000000
2.775000	0.000000	0.000000	0.000000	0.000000	0.000000	0.000000	44.460587	-0.737712	9.776726	30.593164	6.588634	-2.199338	4.378936	5.980524	0.000000	8.405921	4.048495	-0.572132	2.758211	-1.931092	6.707428	5.376675	15.335319	0.000000
2.783333	0.000000	0.000000	0.000000	0.000000	0.000000	0.000000	44.644161	-0.545797	9.556476	27.607430	5.488567	-2.661758	3.874952	6.143073	0.000000	7.979022	3.976380	-0.400171	2.861363	-1.936032	6.761105	5.799318	15.167750	0.000000
2.791667	0.000000	0.000000	0.000000	0.000000	0.000000	0.000000	44.785954	-0.366046	9.293160	24.706646	4.303560	-2.873410	3.311491	6.271174	0.000000	7.583822	3.920780	-0.325737	3.033305	-1.940603	6.893092	6.232022	15.036669	0.000000
2.800000	0.000000	0.000000	0.000000	0.000000	0.000000	0.000000	44.887257	-0.199354	8.995412	21.908064	3.073121	-2.846980	2.687773	6.338652	0.000000	7.210344	3.876340	-0.345190	3.262829	-1.941974	7.088469	6.660718	14.967149	0.000000
2.808333	0.000000	0.000000	0.000000	0.000000	0.000000	0.000000	44.949501	-0.046938	8.672180	19.227262	1.840917	-2.610836	2.003800	6.332269	0.000000	6.848246	3.834898	-0.450906	3.539153	-1.935868	7.335068	7.071104	14.971275	0.000000
2.816667	0.000000	0.000000	0.000000	0.000000	0.000000	0.000000	44.974213	0.089682	8.334088	16.679476	0.651995	-2.209168	1.262424	6.255783	0.000000	6.487824	3.787421	-0.632622	3.852926	-1.918215	7.625592	7.450890	15.046002	0.000000
2.825000	0.000000	0.000000	0.000000	0.000000	0.000000	0.000000	44.962990	0.208541	7.995056	14.280331	-0.451036	-1.701203	0.471568	6.129458	0.000000	6.121276	3.725888	-0.878255	4.197166	-1.886377	7.958027	7.791981	15.174818	0.000000
2.833333	0.000000	0.000000	0.000000	0.000000	0.000000	0.000000	44.918358	0.307051	7.673483	12.046967	-1.432142	-1.156996	-0.353319	5.984651	0.000000	5.744555	3.645372	-1.174883	4.568311	-1.840329	8.332900	8.091567	15.334194	0.000000
2.841667	0.000000	0.000000	0.000000	0.000000	0.000000	0.000000	44.844280	0.382404	7.391638	9.998515	-2.265917	-0.650531	-1.188056	5.856572	0.000000	5.358495	3.544628	-1.509499	4.966570	-1.782938	8.749448	8.351650	15.501941	0.000000
2.850000	0.000000	0.000000	0.000000	0.000000	0.000000	0.000000	44.746502	0.432279	7.173580	8.155748	-2.939955	-0.250363	-2.001196	5.777299	0.000000	4.968780	3.426036	-1.869229	5.395460	-1.719676	9.202474	8.576862	15.662724	0.000000
2.858333	0.000000	0.000000	0.000000	0.000000	0.000000	0.000000	44.632286	0.455681	7.041606	6.539756	-3.455032	-0.009790	-2.758352	5.769330	0.000000	4.584577	3.294295	-2.240844	5.860478	-1.657257	9.681085	8.771195	15.809885	0.000000
2.866667	0.000000	0.000000	0.000000	0.000000	0.000000	0.000000	44.510429	0.453566	7.012143	5.170722	-3.822627	0.041409	-3.427500	5.840687	0.000000	4.216566	3.155064	-2.610450	6.366835	-1.602065	10.169506	8.934424	15.943818	0.000000
2.875000	0.000000	0.000000	0.000000	0.000000	0.000000	0.000000	44.390324	0.429548	7.091504	4.066371	-4.061130	-0.099390	-3.983341	5.983353	0.000000	3.874414	3.012731	-2.963407	6.917265	-1.558468	10.649633	9.059704	16.068850	0.000000
2.883333	0.000000	0.000000	0.000000	0.000000	0.000000	0.000000	44.280598	0.389986	7.273939	3.240181	-4.190964	-0.409385	-4.410279	6.176004	0.000000	3.564519	2.869378	-3.285204	7.510734	-1.528140	11.103609	9.133442	16.189489	0.000000
2.891667	0.000000	0.000000	0.000000	0.000000	0.000000	0.000000	44.187134	0.343671	7.542040	2.698693	-4.230761	-0.846381	-4.704613	6.388773	0.000000	3.288584	2.724189	-3.562935	8.142953	-1.509812	11.516706	9.138051	16.307236	0.000000
2.900000	0.000000	0.000000	0.000000	0.000000	0.000000	0.000000	44.111740	0.300909	7.869057	2.438804	-4.195301	-1.355800	-4.876113	6.588033	0.000000	3.043952	2.573992	-3.787081	8.808708	-1.499964	11.879045	9.056012	16.419828	0.000000
2.908333	0.000000	0.000000	0.000000	0.000000	0.000000	0.000000	44.051388	0.272409	8.222013	2.445358	-4.095776	-1.877623	-4.948713	6.742020	0.000000	2.825231	2.414089	-3.953267	9.504762	-1.494116	12.185439	8.873172	16.523947	0.000000
2.916667	0.000000	0.000000	0.000000	0.000000	0.000000	0.000000	43.998009	0.268239	8.565393	2.689327	-3.941795	-2.353301	-4.960629	6.828381	0.000000	2.626355	2.239266	-4.063422	10.232318	-1.488192	12.434609	8.580352	16.618206	0.000000
2.925000	0.000000	0.000000	0.000000	0.000000	0.000000	0.000000	43.938698	0.296831	8.864846	3.127440	-3.743914	-2.731628	-4.963738	6.840344	0.000000	2.442481	2.044477	-4.125760	10.998880	-1.479228	12.629024	8.172945	16.704376	0.000000
2.933333	0.000000	0.000000	0.000000	0.000000	0.000000	0.000000	43.856979	0.364008	9.090352	3.704847	-3.514939	-2.972181	-5.020390	6.788625	0.000000	2.271286	1.825279	-4.153598	11.818381	-1.465259	12.774890	7.648715	16.786787	0.000000
2.941667	0.000000	0.000000	0.000000	0.000000	0.000000	0.000000	43.734859	0.472666	9.218022	4.361445	-3.269682	-3.046611	-5.194862	6.697825	0.000000	2.113428	1.577371	-4.163153	12.709512	-1.444425	12.881274	7.004405	16.871538	0.000000
